%TF.GenerationSoftware,KiCad,Pcbnew,9.0.4*%
%TF.CreationDate,2025-12-04T13:46:48-07:00*%
%TF.ProjectId,HW2 folder,48573220-666f-46c6-9465-722e6b696361,rev?*%
%TF.SameCoordinates,Original*%
%TF.FileFunction,AssemblyDrawing,Bot*%
%FSLAX46Y46*%
G04 Gerber Fmt 4.6, Leading zero omitted, Abs format (unit mm)*
G04 Created by KiCad (PCBNEW 9.0.4) date 2025-12-04 13:46:48*
%MOMM*%
%LPD*%
G01*
G04 APERTURE LIST*
%ADD10C,0.150000*%
%ADD11C,0.100000*%
G04 APERTURE END LIST*
D10*
X147382380Y-84806304D02*
X147430000Y-84758685D01*
X147430000Y-84758685D02*
X147477619Y-84615828D01*
X147477619Y-84615828D02*
X147477619Y-84520590D01*
X147477619Y-84520590D02*
X147430000Y-84377733D01*
X147430000Y-84377733D02*
X147334761Y-84282495D01*
X147334761Y-84282495D02*
X147239523Y-84234876D01*
X147239523Y-84234876D02*
X147049047Y-84187257D01*
X147049047Y-84187257D02*
X146906190Y-84187257D01*
X146906190Y-84187257D02*
X146715714Y-84234876D01*
X146715714Y-84234876D02*
X146620476Y-84282495D01*
X146620476Y-84282495D02*
X146525238Y-84377733D01*
X146525238Y-84377733D02*
X146477619Y-84520590D01*
X146477619Y-84520590D02*
X146477619Y-84615828D01*
X146477619Y-84615828D02*
X146525238Y-84758685D01*
X146525238Y-84758685D02*
X146572857Y-84806304D01*
X147477619Y-85377733D02*
X147430000Y-85282495D01*
X147430000Y-85282495D02*
X147382380Y-85234876D01*
X147382380Y-85234876D02*
X147287142Y-85187257D01*
X147287142Y-85187257D02*
X147001428Y-85187257D01*
X147001428Y-85187257D02*
X146906190Y-85234876D01*
X146906190Y-85234876D02*
X146858571Y-85282495D01*
X146858571Y-85282495D02*
X146810952Y-85377733D01*
X146810952Y-85377733D02*
X146810952Y-85520590D01*
X146810952Y-85520590D02*
X146858571Y-85615828D01*
X146858571Y-85615828D02*
X146906190Y-85663447D01*
X146906190Y-85663447D02*
X147001428Y-85711066D01*
X147001428Y-85711066D02*
X147287142Y-85711066D01*
X147287142Y-85711066D02*
X147382380Y-85663447D01*
X147382380Y-85663447D02*
X147430000Y-85615828D01*
X147430000Y-85615828D02*
X147477619Y-85520590D01*
X147477619Y-85520590D02*
X147477619Y-85377733D01*
X146810952Y-86139638D02*
X147477619Y-86139638D01*
X146906190Y-86139638D02*
X146858571Y-86187257D01*
X146858571Y-86187257D02*
X146810952Y-86282495D01*
X146810952Y-86282495D02*
X146810952Y-86425352D01*
X146810952Y-86425352D02*
X146858571Y-86520590D01*
X146858571Y-86520590D02*
X146953809Y-86568209D01*
X146953809Y-86568209D02*
X147477619Y-86568209D01*
X146810952Y-87044400D02*
X147477619Y-87044400D01*
X146906190Y-87044400D02*
X146858571Y-87092019D01*
X146858571Y-87092019D02*
X146810952Y-87187257D01*
X146810952Y-87187257D02*
X146810952Y-87330114D01*
X146810952Y-87330114D02*
X146858571Y-87425352D01*
X146858571Y-87425352D02*
X146953809Y-87472971D01*
X146953809Y-87472971D02*
X147477619Y-87472971D01*
X147572857Y-87711067D02*
X147572857Y-88472971D01*
X146477619Y-88901543D02*
X146477619Y-88996781D01*
X146477619Y-88996781D02*
X146525238Y-89092019D01*
X146525238Y-89092019D02*
X146572857Y-89139638D01*
X146572857Y-89139638D02*
X146668095Y-89187257D01*
X146668095Y-89187257D02*
X146858571Y-89234876D01*
X146858571Y-89234876D02*
X147096666Y-89234876D01*
X147096666Y-89234876D02*
X147287142Y-89187257D01*
X147287142Y-89187257D02*
X147382380Y-89139638D01*
X147382380Y-89139638D02*
X147430000Y-89092019D01*
X147430000Y-89092019D02*
X147477619Y-88996781D01*
X147477619Y-88996781D02*
X147477619Y-88901543D01*
X147477619Y-88901543D02*
X147430000Y-88806305D01*
X147430000Y-88806305D02*
X147382380Y-88758686D01*
X147382380Y-88758686D02*
X147287142Y-88711067D01*
X147287142Y-88711067D02*
X147096666Y-88663448D01*
X147096666Y-88663448D02*
X146858571Y-88663448D01*
X146858571Y-88663448D02*
X146668095Y-88711067D01*
X146668095Y-88711067D02*
X146572857Y-88758686D01*
X146572857Y-88758686D02*
X146525238Y-88806305D01*
X146525238Y-88806305D02*
X146477619Y-88901543D01*
X147477619Y-90187257D02*
X147477619Y-89615829D01*
X147477619Y-89901543D02*
X146477619Y-89901543D01*
X146477619Y-89901543D02*
X146620476Y-89806305D01*
X146620476Y-89806305D02*
X146715714Y-89711067D01*
X146715714Y-89711067D02*
X146763333Y-89615829D01*
X147477619Y-90520591D02*
X146810952Y-91044400D01*
X146810952Y-90520591D02*
X147477619Y-91044400D01*
X146477619Y-91615829D02*
X146477619Y-91711067D01*
X146477619Y-91711067D02*
X146525238Y-91806305D01*
X146525238Y-91806305D02*
X146572857Y-91853924D01*
X146572857Y-91853924D02*
X146668095Y-91901543D01*
X146668095Y-91901543D02*
X146858571Y-91949162D01*
X146858571Y-91949162D02*
X147096666Y-91949162D01*
X147096666Y-91949162D02*
X147287142Y-91901543D01*
X147287142Y-91901543D02*
X147382380Y-91853924D01*
X147382380Y-91853924D02*
X147430000Y-91806305D01*
X147430000Y-91806305D02*
X147477619Y-91711067D01*
X147477619Y-91711067D02*
X147477619Y-91615829D01*
X147477619Y-91615829D02*
X147430000Y-91520591D01*
X147430000Y-91520591D02*
X147382380Y-91472972D01*
X147382380Y-91472972D02*
X147287142Y-91425353D01*
X147287142Y-91425353D02*
X147096666Y-91377734D01*
X147096666Y-91377734D02*
X146858571Y-91377734D01*
X146858571Y-91377734D02*
X146668095Y-91425353D01*
X146668095Y-91425353D02*
X146572857Y-91472972D01*
X146572857Y-91472972D02*
X146525238Y-91520591D01*
X146525238Y-91520591D02*
X146477619Y-91615829D01*
X146906190Y-92520591D02*
X146858571Y-92425353D01*
X146858571Y-92425353D02*
X146810952Y-92377734D01*
X146810952Y-92377734D02*
X146715714Y-92330115D01*
X146715714Y-92330115D02*
X146668095Y-92330115D01*
X146668095Y-92330115D02*
X146572857Y-92377734D01*
X146572857Y-92377734D02*
X146525238Y-92425353D01*
X146525238Y-92425353D02*
X146477619Y-92520591D01*
X146477619Y-92520591D02*
X146477619Y-92711067D01*
X146477619Y-92711067D02*
X146525238Y-92806305D01*
X146525238Y-92806305D02*
X146572857Y-92853924D01*
X146572857Y-92853924D02*
X146668095Y-92901543D01*
X146668095Y-92901543D02*
X146715714Y-92901543D01*
X146715714Y-92901543D02*
X146810952Y-92853924D01*
X146810952Y-92853924D02*
X146858571Y-92806305D01*
X146858571Y-92806305D02*
X146906190Y-92711067D01*
X146906190Y-92711067D02*
X146906190Y-92520591D01*
X146906190Y-92520591D02*
X146953809Y-92425353D01*
X146953809Y-92425353D02*
X147001428Y-92377734D01*
X147001428Y-92377734D02*
X147096666Y-92330115D01*
X147096666Y-92330115D02*
X147287142Y-92330115D01*
X147287142Y-92330115D02*
X147382380Y-92377734D01*
X147382380Y-92377734D02*
X147430000Y-92425353D01*
X147430000Y-92425353D02*
X147477619Y-92520591D01*
X147477619Y-92520591D02*
X147477619Y-92711067D01*
X147477619Y-92711067D02*
X147430000Y-92806305D01*
X147430000Y-92806305D02*
X147382380Y-92853924D01*
X147382380Y-92853924D02*
X147287142Y-92901543D01*
X147287142Y-92901543D02*
X147096666Y-92901543D01*
X147096666Y-92901543D02*
X147001428Y-92853924D01*
X147001428Y-92853924D02*
X146953809Y-92806305D01*
X146953809Y-92806305D02*
X146906190Y-92711067D01*
X158626133Y-87999219D02*
X158626133Y-88713504D01*
X158626133Y-88713504D02*
X158673752Y-88856361D01*
X158673752Y-88856361D02*
X158768990Y-88951600D01*
X158768990Y-88951600D02*
X158911847Y-88999219D01*
X158911847Y-88999219D02*
X159007085Y-88999219D01*
X158245180Y-87999219D02*
X157626133Y-87999219D01*
X157626133Y-87999219D02*
X157959466Y-88380171D01*
X157959466Y-88380171D02*
X157816609Y-88380171D01*
X157816609Y-88380171D02*
X157721371Y-88427790D01*
X157721371Y-88427790D02*
X157673752Y-88475409D01*
X157673752Y-88475409D02*
X157626133Y-88570647D01*
X157626133Y-88570647D02*
X157626133Y-88808742D01*
X157626133Y-88808742D02*
X157673752Y-88903980D01*
X157673752Y-88903980D02*
X157721371Y-88951600D01*
X157721371Y-88951600D02*
X157816609Y-88999219D01*
X157816609Y-88999219D02*
X158102323Y-88999219D01*
X158102323Y-88999219D02*
X158197561Y-88951600D01*
X158197561Y-88951600D02*
X158245180Y-88903980D01*
X138619380Y-93245941D02*
X138667000Y-93198322D01*
X138667000Y-93198322D02*
X138714619Y-93055465D01*
X138714619Y-93055465D02*
X138714619Y-92960227D01*
X138714619Y-92960227D02*
X138667000Y-92817370D01*
X138667000Y-92817370D02*
X138571761Y-92722132D01*
X138571761Y-92722132D02*
X138476523Y-92674513D01*
X138476523Y-92674513D02*
X138286047Y-92626894D01*
X138286047Y-92626894D02*
X138143190Y-92626894D01*
X138143190Y-92626894D02*
X137952714Y-92674513D01*
X137952714Y-92674513D02*
X137857476Y-92722132D01*
X137857476Y-92722132D02*
X137762238Y-92817370D01*
X137762238Y-92817370D02*
X137714619Y-92960227D01*
X137714619Y-92960227D02*
X137714619Y-93055465D01*
X137714619Y-93055465D02*
X137762238Y-93198322D01*
X137762238Y-93198322D02*
X137809857Y-93245941D01*
X138714619Y-93817370D02*
X138667000Y-93722132D01*
X138667000Y-93722132D02*
X138619380Y-93674513D01*
X138619380Y-93674513D02*
X138524142Y-93626894D01*
X138524142Y-93626894D02*
X138238428Y-93626894D01*
X138238428Y-93626894D02*
X138143190Y-93674513D01*
X138143190Y-93674513D02*
X138095571Y-93722132D01*
X138095571Y-93722132D02*
X138047952Y-93817370D01*
X138047952Y-93817370D02*
X138047952Y-93960227D01*
X138047952Y-93960227D02*
X138095571Y-94055465D01*
X138095571Y-94055465D02*
X138143190Y-94103084D01*
X138143190Y-94103084D02*
X138238428Y-94150703D01*
X138238428Y-94150703D02*
X138524142Y-94150703D01*
X138524142Y-94150703D02*
X138619380Y-94103084D01*
X138619380Y-94103084D02*
X138667000Y-94055465D01*
X138667000Y-94055465D02*
X138714619Y-93960227D01*
X138714619Y-93960227D02*
X138714619Y-93817370D01*
X138047952Y-94579275D02*
X138714619Y-94579275D01*
X138143190Y-94579275D02*
X138095571Y-94626894D01*
X138095571Y-94626894D02*
X138047952Y-94722132D01*
X138047952Y-94722132D02*
X138047952Y-94864989D01*
X138047952Y-94864989D02*
X138095571Y-94960227D01*
X138095571Y-94960227D02*
X138190809Y-95007846D01*
X138190809Y-95007846D02*
X138714619Y-95007846D01*
X138047952Y-95484037D02*
X138714619Y-95484037D01*
X138143190Y-95484037D02*
X138095571Y-95531656D01*
X138095571Y-95531656D02*
X138047952Y-95626894D01*
X138047952Y-95626894D02*
X138047952Y-95769751D01*
X138047952Y-95769751D02*
X138095571Y-95864989D01*
X138095571Y-95864989D02*
X138190809Y-95912608D01*
X138190809Y-95912608D02*
X138714619Y-95912608D01*
X138809857Y-96150704D02*
X138809857Y-96912608D01*
X137714619Y-97341180D02*
X137714619Y-97436418D01*
X137714619Y-97436418D02*
X137762238Y-97531656D01*
X137762238Y-97531656D02*
X137809857Y-97579275D01*
X137809857Y-97579275D02*
X137905095Y-97626894D01*
X137905095Y-97626894D02*
X138095571Y-97674513D01*
X138095571Y-97674513D02*
X138333666Y-97674513D01*
X138333666Y-97674513D02*
X138524142Y-97626894D01*
X138524142Y-97626894D02*
X138619380Y-97579275D01*
X138619380Y-97579275D02*
X138667000Y-97531656D01*
X138667000Y-97531656D02*
X138714619Y-97436418D01*
X138714619Y-97436418D02*
X138714619Y-97341180D01*
X138714619Y-97341180D02*
X138667000Y-97245942D01*
X138667000Y-97245942D02*
X138619380Y-97198323D01*
X138619380Y-97198323D02*
X138524142Y-97150704D01*
X138524142Y-97150704D02*
X138333666Y-97103085D01*
X138333666Y-97103085D02*
X138095571Y-97103085D01*
X138095571Y-97103085D02*
X137905095Y-97150704D01*
X137905095Y-97150704D02*
X137809857Y-97198323D01*
X137809857Y-97198323D02*
X137762238Y-97245942D01*
X137762238Y-97245942D02*
X137714619Y-97341180D01*
X137809857Y-98055466D02*
X137762238Y-98103085D01*
X137762238Y-98103085D02*
X137714619Y-98198323D01*
X137714619Y-98198323D02*
X137714619Y-98436418D01*
X137714619Y-98436418D02*
X137762238Y-98531656D01*
X137762238Y-98531656D02*
X137809857Y-98579275D01*
X137809857Y-98579275D02*
X137905095Y-98626894D01*
X137905095Y-98626894D02*
X138000333Y-98626894D01*
X138000333Y-98626894D02*
X138143190Y-98579275D01*
X138143190Y-98579275D02*
X138714619Y-98007847D01*
X138714619Y-98007847D02*
X138714619Y-98626894D01*
X138714619Y-98960228D02*
X138047952Y-99484037D01*
X138047952Y-98960228D02*
X138714619Y-99484037D01*
X137714619Y-100055466D02*
X137714619Y-100150704D01*
X137714619Y-100150704D02*
X137762238Y-100245942D01*
X137762238Y-100245942D02*
X137809857Y-100293561D01*
X137809857Y-100293561D02*
X137905095Y-100341180D01*
X137905095Y-100341180D02*
X138095571Y-100388799D01*
X138095571Y-100388799D02*
X138333666Y-100388799D01*
X138333666Y-100388799D02*
X138524142Y-100341180D01*
X138524142Y-100341180D02*
X138619380Y-100293561D01*
X138619380Y-100293561D02*
X138667000Y-100245942D01*
X138667000Y-100245942D02*
X138714619Y-100150704D01*
X138714619Y-100150704D02*
X138714619Y-100055466D01*
X138714619Y-100055466D02*
X138667000Y-99960228D01*
X138667000Y-99960228D02*
X138619380Y-99912609D01*
X138619380Y-99912609D02*
X138524142Y-99864990D01*
X138524142Y-99864990D02*
X138333666Y-99817371D01*
X138333666Y-99817371D02*
X138095571Y-99817371D01*
X138095571Y-99817371D02*
X137905095Y-99864990D01*
X137905095Y-99864990D02*
X137809857Y-99912609D01*
X137809857Y-99912609D02*
X137762238Y-99960228D01*
X137762238Y-99960228D02*
X137714619Y-100055466D01*
X138047952Y-101245942D02*
X138714619Y-101245942D01*
X137667000Y-101007847D02*
X138381285Y-100769752D01*
X138381285Y-100769752D02*
X138381285Y-101388799D01*
X138809857Y-101531657D02*
X138809857Y-102293561D01*
X137714619Y-102722133D02*
X137714619Y-102912609D01*
X137714619Y-102912609D02*
X137762238Y-103007847D01*
X137762238Y-103007847D02*
X137857476Y-103103085D01*
X137857476Y-103103085D02*
X138047952Y-103150704D01*
X138047952Y-103150704D02*
X138381285Y-103150704D01*
X138381285Y-103150704D02*
X138571761Y-103103085D01*
X138571761Y-103103085D02*
X138667000Y-103007847D01*
X138667000Y-103007847D02*
X138714619Y-102912609D01*
X138714619Y-102912609D02*
X138714619Y-102722133D01*
X138714619Y-102722133D02*
X138667000Y-102626895D01*
X138667000Y-102626895D02*
X138571761Y-102531657D01*
X138571761Y-102531657D02*
X138381285Y-102484038D01*
X138381285Y-102484038D02*
X138047952Y-102484038D01*
X138047952Y-102484038D02*
X137857476Y-102531657D01*
X137857476Y-102531657D02*
X137762238Y-102626895D01*
X137762238Y-102626895D02*
X137714619Y-102722133D01*
X138714619Y-104007847D02*
X137714619Y-104007847D01*
X138667000Y-104007847D02*
X138714619Y-103912609D01*
X138714619Y-103912609D02*
X138714619Y-103722133D01*
X138714619Y-103722133D02*
X138667000Y-103626895D01*
X138667000Y-103626895D02*
X138619380Y-103579276D01*
X138619380Y-103579276D02*
X138524142Y-103531657D01*
X138524142Y-103531657D02*
X138238428Y-103531657D01*
X138238428Y-103531657D02*
X138143190Y-103579276D01*
X138143190Y-103579276D02*
X138095571Y-103626895D01*
X138095571Y-103626895D02*
X138047952Y-103722133D01*
X138047952Y-103722133D02*
X138047952Y-103912609D01*
X138047952Y-103912609D02*
X138095571Y-104007847D01*
X138714619Y-104912609D02*
X137714619Y-104912609D01*
X138667000Y-104912609D02*
X138714619Y-104817371D01*
X138714619Y-104817371D02*
X138714619Y-104626895D01*
X138714619Y-104626895D02*
X138667000Y-104531657D01*
X138667000Y-104531657D02*
X138619380Y-104484038D01*
X138619380Y-104484038D02*
X138524142Y-104436419D01*
X138524142Y-104436419D02*
X138238428Y-104436419D01*
X138238428Y-104436419D02*
X138143190Y-104484038D01*
X138143190Y-104484038D02*
X138095571Y-104531657D01*
X138095571Y-104531657D02*
X138047952Y-104626895D01*
X138047952Y-104626895D02*
X138047952Y-104817371D01*
X138047952Y-104817371D02*
X138095571Y-104912609D01*
X138809857Y-105150705D02*
X138809857Y-105912609D01*
X138190809Y-106150705D02*
X138190809Y-106484038D01*
X138714619Y-106626895D02*
X138714619Y-106150705D01*
X138714619Y-106150705D02*
X137714619Y-106150705D01*
X137714619Y-106150705D02*
X137714619Y-106626895D01*
X138047952Y-106960229D02*
X138714619Y-107198324D01*
X138714619Y-107198324D02*
X138047952Y-107436419D01*
X138667000Y-108198324D02*
X138714619Y-108103086D01*
X138714619Y-108103086D02*
X138714619Y-107912610D01*
X138714619Y-107912610D02*
X138667000Y-107817372D01*
X138667000Y-107817372D02*
X138571761Y-107769753D01*
X138571761Y-107769753D02*
X138190809Y-107769753D01*
X138190809Y-107769753D02*
X138095571Y-107817372D01*
X138095571Y-107817372D02*
X138047952Y-107912610D01*
X138047952Y-107912610D02*
X138047952Y-108103086D01*
X138047952Y-108103086D02*
X138095571Y-108198324D01*
X138095571Y-108198324D02*
X138190809Y-108245943D01*
X138190809Y-108245943D02*
X138286047Y-108245943D01*
X138286047Y-108245943D02*
X138381285Y-107769753D01*
X138047952Y-108674515D02*
X138714619Y-108674515D01*
X138143190Y-108674515D02*
X138095571Y-108722134D01*
X138095571Y-108722134D02*
X138047952Y-108817372D01*
X138047952Y-108817372D02*
X138047952Y-108960229D01*
X138047952Y-108960229D02*
X138095571Y-109055467D01*
X138095571Y-109055467D02*
X138190809Y-109103086D01*
X138190809Y-109103086D02*
X138714619Y-109103086D01*
X144783133Y-100343619D02*
X144783133Y-101057904D01*
X144783133Y-101057904D02*
X144830752Y-101200761D01*
X144830752Y-101200761D02*
X144925990Y-101296000D01*
X144925990Y-101296000D02*
X145068847Y-101343619D01*
X145068847Y-101343619D02*
X145164085Y-101343619D01*
X144354561Y-100438857D02*
X144306942Y-100391238D01*
X144306942Y-100391238D02*
X144211704Y-100343619D01*
X144211704Y-100343619D02*
X143973609Y-100343619D01*
X143973609Y-100343619D02*
X143878371Y-100391238D01*
X143878371Y-100391238D02*
X143830752Y-100438857D01*
X143830752Y-100438857D02*
X143783133Y-100534095D01*
X143783133Y-100534095D02*
X143783133Y-100629333D01*
X143783133Y-100629333D02*
X143830752Y-100772190D01*
X143830752Y-100772190D02*
X144402180Y-101343619D01*
X144402180Y-101343619D02*
X143783133Y-101343619D01*
D11*
%TO.C,J3*%
X148132800Y-87274400D02*
X148132800Y-89814400D01*
X148132800Y-89814400D02*
X167817800Y-89814400D01*
X167817800Y-89814400D02*
X168452800Y-89179400D01*
X168452800Y-87274400D02*
X148132800Y-87274400D01*
X168452800Y-89179400D02*
X168452800Y-87274400D01*
%TO.C,J2*%
X139369800Y-98348800D02*
X139369800Y-103428800D01*
X139369800Y-103428800D02*
X148259800Y-103428800D01*
X148259800Y-103428800D02*
X149529800Y-102158800D01*
X149529800Y-98348800D02*
X139369800Y-98348800D01*
X149529800Y-102158800D02*
X149529800Y-98348800D01*
%TD*%
M02*
