M48
; DRILL file {KiCad 9.0.4} date 2025-12-04T13:46:38-0700
; FORMAT={-:-/ absolute / metric / decimal}
; #@! TF.CreationDate,2025-12-04T13:46:38-07:00
; #@! TF.GenerationSoftware,Kicad,Pcbnew,9.0.4
; #@! TF.FileFunction,Plated,1,2,PTH
FMAT,2
METRIC
; #@! TA.AperFunction,Plated,PTH,ComponentDrill
T1C0.800
; #@! TA.AperFunction,Plated,PTH,ComponentDrill
T2C0.900
; #@! TA.AperFunction,Plated,PTH,ComponentDrill
T3C1.000
; #@! TA.AperFunction,Plated,PTH,ComponentDrill
T4C1.200
; #@! TA.AperFunction,Plated,PTH,ComponentDrill
T5C1.300
; #@! TA.AperFunction,Plated,PTH,ComponentDrill
T6C1.350
; #@! TA.AperFunction,Plated,PTH,ComponentDrill
T7C1.600
%
G90
G05
T1
X78.207Y-98.171
X82.626Y-77.154
X82.626Y-82.154
X83.363Y-87.735
X83.363Y-92.735
X87.528Y-77.394
X87.528Y-82.304
X90.068Y-77.394
X90.068Y-82.304
X90.17Y-117.196
X90.907Y-98.171
X92.608Y-77.394
X92.608Y-82.304
X95.148Y-77.394
X95.148Y-82.304
X97.688Y-77.394
X97.688Y-82.304
X98.552Y-88.748
X98.552Y-101.448
X100.228Y-77.394
X100.228Y-82.304
X102.768Y-77.394
X102.768Y-82.304
X102.87Y-117.196
X104.394Y-87.187
X104.394Y-92.187
X110.149Y-61.62
X110.327Y-54.0
X110.82Y-71.425
X110.82Y-73.965
X110.82Y-76.505
X110.82Y-79.045
X110.82Y-81.585
X110.82Y-84.125
X110.82Y-86.665
X110.82Y-89.205
X110.82Y-91.745
X110.82Y-94.285
X110.82Y-96.825
X110.82Y-99.365
X110.82Y-101.905
X110.82Y-104.445
X110.82Y-106.985
X110.82Y-109.525
X110.82Y-112.065
X110.82Y-114.605
X110.82Y-117.145
X110.82Y-119.685
X110.82Y-122.225
X110.82Y-124.765
X110.82Y-127.305
X110.82Y-129.845
X110.82Y-132.385
X110.82Y-134.925
X110.82Y-137.465
X110.82Y-140.005
X115.149Y-61.62
X115.327Y-54.0
X126.06Y-71.425
X126.06Y-73.965
X126.06Y-76.505
X126.06Y-79.045
X126.06Y-81.585
X126.06Y-84.125
X126.06Y-86.665
X126.06Y-89.205
X126.06Y-91.745
X126.06Y-94.285
X126.06Y-96.825
X126.06Y-99.365
X126.06Y-101.905
X126.06Y-104.445
X126.06Y-106.985
X126.06Y-109.525
X126.06Y-112.065
X126.06Y-114.605
X126.06Y-117.145
X126.06Y-119.685
X126.06Y-122.225
X126.06Y-124.765
X126.06Y-127.305
X126.06Y-129.845
X126.06Y-132.385
X126.06Y-134.925
X126.06Y-137.465
X126.06Y-140.005
X132.349Y-83.515
X137.349Y-83.515
X140.172Y-61.341
X140.64Y-99.619
X140.64Y-102.159
X143.18Y-99.619
X143.18Y-102.159
X143.789Y-51.947
X143.789Y-56.947
X145.172Y-61.341
X145.72Y-99.619
X145.72Y-102.159
X148.26Y-99.619
X148.26Y-102.159
X149.403Y-88.544
X151.943Y-88.544
X154.483Y-88.544
X157.023Y-88.544
X159.563Y-88.544
X162.103Y-88.544
X164.643Y-88.544
X167.183Y-88.544
T2
X87.629Y-111.506
X90.169Y-111.506
T3
X89.256Y-88.614
X91.796Y-88.614
X94.336Y-88.614
X97.358Y-53.823
X99.898Y-53.823
X102.438Y-53.823
X149.256Y-52.959
X149.256Y-60.019
X151.796Y-52.959
X151.796Y-60.019
X154.336Y-52.959
X154.336Y-60.019
X165.176Y-52.959
X165.176Y-60.019
X167.716Y-52.959
X167.716Y-60.019
X170.256Y-52.959
X170.256Y-60.019
T4
X157.291Y-64.389
X162.291Y-64.389
T5
X84.482Y-104.826
X90.982Y-104.826
T6
X95.377Y-66.573
X105.537Y-66.573
T7
X83.439Y-59.639
X86.439Y-64.339
X89.439Y-59.639
T3
G00X161.256Y-52.959
M15
G01X158.256Y-52.959
M16
G05
G00X161.256Y-60.019
M15
G01X158.256Y-60.019
M16
G05
M30
