%TF.GenerationSoftware,KiCad,Pcbnew,9.0.4*%
%TF.CreationDate,2025-12-04T13:46:47-07:00*%
%TF.ProjectId,HW2 folder,48573220-666f-46c6-9465-722e6b696361,rev?*%
%TF.SameCoordinates,Original*%
%TF.FileFunction,Soldermask,Bot*%
%TF.FilePolarity,Negative*%
%FSLAX46Y46*%
G04 Gerber Fmt 4.6, Leading zero omitted, Abs format (unit mm)*
G04 Created by KiCad (PCBNEW 9.0.4) date 2025-12-04 13:46:47*
%MOMM*%
%LPD*%
G01*
G04 APERTURE LIST*
G04 Aperture macros list*
%AMRoundRect*
0 Rectangle with rounded corners*
0 $1 Rounding radius*
0 $2 $3 $4 $5 $6 $7 $8 $9 X,Y pos of 4 corners*
0 Add a 4 corners polygon primitive as box body*
4,1,4,$2,$3,$4,$5,$6,$7,$8,$9,$2,$3,0*
0 Add four circle primitives for the rounded corners*
1,1,$1+$1,$2,$3*
1,1,$1+$1,$4,$5*
1,1,$1+$1,$6,$7*
1,1,$1+$1,$8,$9*
0 Add four rect primitives between the rounded corners*
20,1,$1+$1,$2,$3,$4,$5,0*
20,1,$1+$1,$4,$5,$6,$7,0*
20,1,$1+$1,$6,$7,$8,$9,0*
20,1,$1+$1,$8,$9,$2,$3,0*%
G04 Aperture macros list end*
%ADD10R,2.600000X2.600000*%
%ADD11C,2.600000*%
%ADD12C,1.600000*%
%ADD13C,1.800000*%
%ADD14R,2.250000X2.250000*%
%ADD15C,2.250000*%
%ADD16O,1.800000X2.000000*%
%ADD17RoundRect,0.250000X-0.650000X-0.650000X0.650000X-0.650000X0.650000X0.650000X-0.650000X0.650000X0*%
%ADD18O,2.500000X2.000000*%
%ADD19O,4.762000X1.762000*%
%ADD20C,2.200000*%
%ADD21C,3.000000*%
%ADD22R,1.700000X1.700000*%
%ADD23C,1.700000*%
G04 APERTURE END LIST*
D10*
%TO.C,J1*%
X89439000Y-59639200D03*
D11*
X83439000Y-59639200D03*
X86439000Y-64339200D03*
%TD*%
D12*
%TO.C,C7*%
X143789400Y-56946800D03*
X143789400Y-51946800D03*
%TD*%
D13*
%TO.C,U5*%
X102768400Y-77393800D03*
X100228400Y-77393800D03*
X97688400Y-77393800D03*
X95148400Y-77393800D03*
X92608400Y-77393800D03*
X90068400Y-77393800D03*
X87528400Y-77393800D03*
X87528400Y-82303800D03*
X90068400Y-82303800D03*
X92608400Y-82303800D03*
X95148400Y-82303800D03*
X97688400Y-82303800D03*
X100228400Y-82303800D03*
X102768400Y-82303800D03*
%TD*%
D14*
%TO.C,SW1*%
X90981600Y-104825800D03*
D15*
X84481600Y-104825800D03*
%TD*%
D16*
%TO.C,U4*%
X89255600Y-88613800D03*
X91795600Y-88613800D03*
X94335600Y-88613800D03*
%TD*%
D12*
%TO.C,C1*%
X115149000Y-61620400D03*
X110149000Y-61620400D03*
%TD*%
%TO.C,C2*%
X110326800Y-54000400D03*
X115326800Y-54000400D03*
%TD*%
%TO.C,C6*%
X83362800Y-92735400D03*
X83362800Y-87735400D03*
%TD*%
%TO.C,R2*%
X78206600Y-98171000D03*
X90906600Y-98171000D03*
%TD*%
%TO.C,C5*%
X82626200Y-77154400D03*
X82626200Y-82154400D03*
%TD*%
D17*
%TO.C,D1*%
X87628600Y-111506000D03*
D13*
X90168600Y-111506000D03*
%TD*%
D12*
%TO.C,C4*%
X145171800Y-61341000D03*
X140171800Y-61341000D03*
%TD*%
%TO.C,R3*%
X98552000Y-88747600D03*
X98552000Y-101447600D03*
%TD*%
%TO.C,R1*%
X102870000Y-117195600D03*
X90170000Y-117195600D03*
%TD*%
D18*
%TO.C,M1*%
X162291400Y-64389000D03*
X157291400Y-64389000D03*
%TD*%
D16*
%TO.C,U1*%
X97358200Y-53822600D03*
X99898200Y-53822600D03*
X102438200Y-53822600D03*
%TD*%
D13*
%TO.C,U3*%
X170256200Y-52959000D03*
X167716200Y-52959000D03*
X165176200Y-52959000D03*
X154336200Y-52959000D03*
X151796200Y-52959000D03*
X149256200Y-52959000D03*
X149256200Y-60019000D03*
X151796200Y-60019000D03*
X154336200Y-60019000D03*
X165176200Y-60019000D03*
X167716200Y-60019000D03*
X170256200Y-60019000D03*
D19*
X159756200Y-60019000D03*
X159756200Y-52959000D03*
%TD*%
D20*
%TO.C,F1*%
X95457000Y-61573000D03*
X95457000Y-71573000D03*
X105457000Y-61573000D03*
X105457000Y-71573000D03*
D21*
X95377000Y-66573000D03*
X105537000Y-66573000D03*
%TD*%
D13*
%TO.C,U2*%
X110820200Y-71424800D03*
X110820200Y-73964800D03*
X110820200Y-76504800D03*
X110820200Y-79044800D03*
X110820200Y-81584800D03*
X110820200Y-84124800D03*
X110820200Y-86664800D03*
X110820200Y-89204800D03*
X110820200Y-91744800D03*
X110820200Y-94284800D03*
X110820200Y-96824800D03*
X110820200Y-99364800D03*
X110820200Y-101904800D03*
X110820200Y-104444800D03*
X110820200Y-106984800D03*
X110820200Y-109524800D03*
X110820200Y-112064800D03*
X110820200Y-114604800D03*
X110820200Y-117144800D03*
X110820200Y-119684800D03*
X110820200Y-122224800D03*
X110820200Y-124764800D03*
X110820200Y-127304800D03*
X110820200Y-129844800D03*
X110820200Y-132384800D03*
X110820200Y-134924800D03*
X110820200Y-137464800D03*
X110820200Y-140004800D03*
X126060200Y-140004800D03*
X126060200Y-137464800D03*
X126060200Y-134924800D03*
X126060200Y-132384800D03*
X126060200Y-129844800D03*
X126060200Y-127304800D03*
X126060200Y-124764800D03*
X126060200Y-122224800D03*
X126060200Y-119684800D03*
X126060200Y-117144800D03*
X126060200Y-114604800D03*
X126060200Y-112064800D03*
X126060200Y-109524800D03*
X126060200Y-106984800D03*
X126060200Y-104444800D03*
X126060200Y-101904800D03*
X126060200Y-99364800D03*
X126060200Y-96824800D03*
X126060200Y-94284800D03*
X126060200Y-91744800D03*
X126060200Y-89204800D03*
X126060200Y-86664800D03*
X126060200Y-84124800D03*
X126060200Y-81584800D03*
X126060200Y-79044800D03*
X126060200Y-76504800D03*
X126060200Y-73964800D03*
X126060200Y-71424800D03*
%TD*%
D12*
%TO.C,C8*%
X104394000Y-92187400D03*
X104394000Y-87187400D03*
%TD*%
%TO.C,C3*%
X132348600Y-83515200D03*
X137348600Y-83515200D03*
%TD*%
D22*
%TO.C,J3*%
X167182800Y-88544400D03*
D23*
X164642800Y-88544400D03*
X162102800Y-88544400D03*
X159562800Y-88544400D03*
X157022800Y-88544400D03*
X154482800Y-88544400D03*
X151942800Y-88544400D03*
X149402800Y-88544400D03*
%TD*%
D22*
%TO.C,J2*%
X148259800Y-102158800D03*
D23*
X148259800Y-99618800D03*
X145719800Y-102158800D03*
X145719800Y-99618800D03*
X143179800Y-102158800D03*
X143179800Y-99618800D03*
X140639800Y-102158800D03*
X140639800Y-99618800D03*
%TD*%
M02*
